<mxfile host="app.diagrams.net" modified="2022-09-26T14:33:26.697Z" agent="5.0 (Macintosh; Intel Mac OS X 10_15_7) AppleWebKit/537.36 (KHTML, like Gecko) Chrome/104.0.5112.122 Whale/3.16.138.27 Safari/537.36" etag="8tpk2bzz85hPO2rhIxQS" version="20.3.3" type="github">
  <diagram id="C5RBs43oDa-KdzZeNtuy" name="Page-1">
    <mxGraphModel dx="1380" dy="781" grid="1" gridSize="10" guides="1" tooltips="1" connect="1" arrows="1" fold="1" page="1" pageScale="1" pageWidth="827" pageHeight="1169" math="0" shadow="0">
      <root>
        <mxCell id="WIyWlLk6GJQsqaUBKTNV-0" />
        <mxCell id="WIyWlLk6GJQsqaUBKTNV-1" parent="WIyWlLk6GJQsqaUBKTNV-0" />
        <mxCell id="3835OeMCajuSgj9HRR2n-3" style="edgeStyle=orthogonalEdgeStyle;rounded=0;orthogonalLoop=1;jettySize=auto;html=1;entryX=0;entryY=0.5;entryDx=0;entryDy=0;fontSize=15;" parent="WIyWlLk6GJQsqaUBKTNV-1" source="3835OeMCajuSgj9HRR2n-0" target="3835OeMCajuSgj9HRR2n-1" edge="1">
          <mxGeometry relative="1" as="geometry" />
        </mxCell>
        <mxCell id="3835OeMCajuSgj9HRR2n-0" value="&lt;font style=&quot;font-size: 15px;&quot;&gt;Client&lt;/font&gt;" style="rounded=1;whiteSpace=wrap;html=1;" parent="WIyWlLk6GJQsqaUBKTNV-1" vertex="1">
          <mxGeometry x="30" y="30" width="100" height="40" as="geometry" />
        </mxCell>
        <mxCell id="3835OeMCajuSgj9HRR2n-5" style="edgeStyle=orthogonalEdgeStyle;rounded=0;orthogonalLoop=1;jettySize=auto;html=1;fontSize=15;" parent="WIyWlLk6GJQsqaUBKTNV-1" source="3835OeMCajuSgj9HRR2n-1" target="3835OeMCajuSgj9HRR2n-2" edge="1">
          <mxGeometry relative="1" as="geometry" />
        </mxCell>
        <mxCell id="3835OeMCajuSgj9HRR2n-1" value="&lt;font style=&quot;font-size: 15px;&quot;&gt;Proxy&lt;/font&gt;" style="rounded=1;whiteSpace=wrap;html=1;" parent="WIyWlLk6GJQsqaUBKTNV-1" vertex="1">
          <mxGeometry x="183.5" y="30" width="100" height="40" as="geometry" />
        </mxCell>
        <mxCell id="3835OeMCajuSgj9HRR2n-2" value="&lt;font style=&quot;font-size: 15px;&quot;&gt;Server&lt;/font&gt;" style="rounded=1;whiteSpace=wrap;html=1;" parent="WIyWlLk6GJQsqaUBKTNV-1" vertex="1">
          <mxGeometry x="340" y="30" width="100" height="40" as="geometry" />
        </mxCell>
        <mxCell id="3835OeMCajuSgj9HRR2n-10" style="edgeStyle=orthogonalEdgeStyle;rounded=0;orthogonalLoop=1;jettySize=auto;html=1;fontSize=15;" parent="WIyWlLk6GJQsqaUBKTNV-1" source="3835OeMCajuSgj9HRR2n-6" target="3835OeMCajuSgj9HRR2n-7" edge="1">
          <mxGeometry relative="1" as="geometry" />
        </mxCell>
        <mxCell id="3835OeMCajuSgj9HRR2n-6" value="&lt;font style=&quot;font-size: 15px;&quot;&gt;Client&lt;/font&gt;" style="rounded=1;whiteSpace=wrap;html=1;" parent="WIyWlLk6GJQsqaUBKTNV-1" vertex="1">
          <mxGeometry x="40" y="180" width="100" height="40" as="geometry" />
        </mxCell>
        <mxCell id="3835OeMCajuSgj9HRR2n-7" value="&lt;font style=&quot;font-size: 15px;&quot;&gt;Subject&lt;br&gt;doAction()&lt;br&gt;&lt;/font&gt;" style="rounded=1;whiteSpace=wrap;html=1;" parent="WIyWlLk6GJQsqaUBKTNV-1" vertex="1">
          <mxGeometry x="193.5" y="180" width="100" height="40" as="geometry" />
        </mxCell>
        <mxCell id="3835OeMCajuSgj9HRR2n-11" style="orthogonalLoop=1;jettySize=auto;html=1;exitX=0.5;exitY=0;exitDx=0;exitDy=0;fontSize=15;strokeColor=default;rounded=0;" parent="WIyWlLk6GJQsqaUBKTNV-1" source="3835OeMCajuSgj9HRR2n-8" target="3835OeMCajuSgj9HRR2n-7" edge="1">
          <mxGeometry relative="1" as="geometry" />
        </mxCell>
        <mxCell id="3835OeMCajuSgj9HRR2n-8" value="&lt;font style=&quot;font-size: 15px;&quot;&gt;Proxy&lt;br&gt;doAction()&lt;br&gt;&lt;/font&gt;" style="rounded=1;whiteSpace=wrap;html=1;" parent="WIyWlLk6GJQsqaUBKTNV-1" vertex="1">
          <mxGeometry x="120" y="280" width="100" height="40" as="geometry" />
        </mxCell>
        <mxCell id="3835OeMCajuSgj9HRR2n-12" style="edgeStyle=none;rounded=0;orthogonalLoop=1;jettySize=auto;html=1;entryX=0.75;entryY=1;entryDx=0;entryDy=0;strokeColor=default;fontSize=15;" parent="WIyWlLk6GJQsqaUBKTNV-1" source="3835OeMCajuSgj9HRR2n-9" target="3835OeMCajuSgj9HRR2n-7" edge="1">
          <mxGeometry relative="1" as="geometry" />
        </mxCell>
        <mxCell id="3835OeMCajuSgj9HRR2n-9" value="&lt;font style=&quot;font-size: 15px;&quot;&gt;RealSubject&lt;br&gt;doAction()&lt;br&gt;&lt;/font&gt;" style="rounded=1;whiteSpace=wrap;html=1;" parent="WIyWlLk6GJQsqaUBKTNV-1" vertex="1">
          <mxGeometry x="280" y="280" width="100" height="40" as="geometry" />
        </mxCell>
        <mxCell id="3835OeMCajuSgj9HRR2n-14" style="edgeStyle=orthogonalEdgeStyle;rounded=0;orthogonalLoop=1;jettySize=auto;html=1;entryX=0;entryY=0.5;entryDx=0;entryDy=0;fontSize=15;" parent="WIyWlLk6GJQsqaUBKTNV-1" source="3835OeMCajuSgj9HRR2n-15" target="3835OeMCajuSgj9HRR2n-17" edge="1">
          <mxGeometry relative="1" as="geometry" />
        </mxCell>
        <mxCell id="3835OeMCajuSgj9HRR2n-15" value="&lt;font style=&quot;font-size: 15px;&quot;&gt;Client&lt;/font&gt;" style="rounded=1;whiteSpace=wrap;html=1;" parent="WIyWlLk6GJQsqaUBKTNV-1" vertex="1">
          <mxGeometry x="40" y="410" width="100" height="40" as="geometry" />
        </mxCell>
        <mxCell id="3835OeMCajuSgj9HRR2n-16" style="edgeStyle=orthogonalEdgeStyle;rounded=0;orthogonalLoop=1;jettySize=auto;html=1;fontSize=15;" parent="WIyWlLk6GJQsqaUBKTNV-1" source="3835OeMCajuSgj9HRR2n-17" target="3835OeMCajuSgj9HRR2n-18" edge="1">
          <mxGeometry relative="1" as="geometry" />
        </mxCell>
        <mxCell id="3835OeMCajuSgj9HRR2n-17" value="&lt;font style=&quot;font-size: 15px;&quot;&gt;Proxy&lt;/font&gt;" style="rounded=1;whiteSpace=wrap;html=1;" parent="WIyWlLk6GJQsqaUBKTNV-1" vertex="1">
          <mxGeometry x="193.5" y="410" width="100" height="40" as="geometry" />
        </mxCell>
        <mxCell id="3835OeMCajuSgj9HRR2n-18" value="&lt;font style=&quot;font-size: 15px;&quot;&gt;RealSubject&lt;/font&gt;" style="rounded=1;whiteSpace=wrap;html=1;" parent="WIyWlLk6GJQsqaUBKTNV-1" vertex="1">
          <mxGeometry x="350" y="410" width="100" height="40" as="geometry" />
        </mxCell>
        <mxCell id="3835OeMCajuSgj9HRR2n-19" value="&lt;b&gt;클래스 의존 관계&lt;/b&gt;" style="text;html=1;strokeColor=none;fillColor=none;align=center;verticalAlign=middle;whiteSpace=wrap;rounded=0;fontSize=15;" parent="WIyWlLk6GJQsqaUBKTNV-1" vertex="1">
          <mxGeometry x="40" y="140" width="110" height="30" as="geometry" />
        </mxCell>
        <mxCell id="3835OeMCajuSgj9HRR2n-20" value="&lt;b&gt;런타임 객체 의존 관계&lt;/b&gt;" style="text;html=1;strokeColor=none;fillColor=none;align=center;verticalAlign=middle;whiteSpace=wrap;rounded=0;fontSize=15;" parent="WIyWlLk6GJQsqaUBKTNV-1" vertex="1">
          <mxGeometry x="40" y="370" width="140" height="30" as="geometry" />
        </mxCell>
        <mxCell id="9MUkiqO2VQU4ABKTeWIf-0" style="edgeStyle=orthogonalEdgeStyle;rounded=0;orthogonalLoop=1;jettySize=auto;html=1;fontSize=15;" edge="1" parent="WIyWlLk6GJQsqaUBKTNV-1" source="9MUkiqO2VQU4ABKTeWIf-1" target="9MUkiqO2VQU4ABKTeWIf-2">
          <mxGeometry relative="1" as="geometry" />
        </mxCell>
        <mxCell id="9MUkiqO2VQU4ABKTeWIf-1" value="&lt;font style=&quot;font-size: 15px;&quot;&gt;Client&lt;/font&gt;" style="rounded=1;whiteSpace=wrap;html=1;" vertex="1" parent="WIyWlLk6GJQsqaUBKTNV-1">
          <mxGeometry x="38.5" y="540" width="100" height="40" as="geometry" />
        </mxCell>
        <mxCell id="9MUkiqO2VQU4ABKTeWIf-2" value="&lt;font style=&quot;font-size: 15px;&quot;&gt;Component&lt;br&gt;operation()&lt;br&gt;&lt;/font&gt;" style="rounded=1;whiteSpace=wrap;html=1;" vertex="1" parent="WIyWlLk6GJQsqaUBKTNV-1">
          <mxGeometry x="192" y="540" width="100" height="40" as="geometry" />
        </mxCell>
        <mxCell id="9MUkiqO2VQU4ABKTeWIf-3" style="orthogonalLoop=1;jettySize=auto;html=1;exitX=0.5;exitY=0;exitDx=0;exitDy=0;fontSize=15;strokeColor=default;rounded=0;" edge="1" parent="WIyWlLk6GJQsqaUBKTNV-1" source="9MUkiqO2VQU4ABKTeWIf-4" target="9MUkiqO2VQU4ABKTeWIf-2">
          <mxGeometry relative="1" as="geometry" />
        </mxCell>
        <mxCell id="9MUkiqO2VQU4ABKTeWIf-4" value="&lt;font style=&quot;font-size: 15px;&quot;&gt;ConcreteComponent&lt;br&gt;operation()&lt;br&gt;&lt;/font&gt;" style="rounded=1;whiteSpace=wrap;html=1;" vertex="1" parent="WIyWlLk6GJQsqaUBKTNV-1">
          <mxGeometry x="80" y="640" width="140" height="40" as="geometry" />
        </mxCell>
        <mxCell id="9MUkiqO2VQU4ABKTeWIf-5" style="edgeStyle=none;rounded=0;orthogonalLoop=1;jettySize=auto;html=1;entryX=0.75;entryY=1;entryDx=0;entryDy=0;strokeColor=default;fontSize=15;" edge="1" parent="WIyWlLk6GJQsqaUBKTNV-1" source="9MUkiqO2VQU4ABKTeWIf-6" target="9MUkiqO2VQU4ABKTeWIf-2">
          <mxGeometry relative="1" as="geometry" />
        </mxCell>
        <mxCell id="9MUkiqO2VQU4ABKTeWIf-22" style="edgeStyle=orthogonalEdgeStyle;rounded=0;orthogonalLoop=1;jettySize=auto;html=1;entryX=1;entryY=0.5;entryDx=0;entryDy=0;" edge="1" parent="WIyWlLk6GJQsqaUBKTNV-1" source="9MUkiqO2VQU4ABKTeWIf-6" target="9MUkiqO2VQU4ABKTeWIf-2">
          <mxGeometry relative="1" as="geometry">
            <Array as="points">
              <mxPoint x="460" y="660" />
              <mxPoint x="460" y="560" />
            </Array>
          </mxGeometry>
        </mxCell>
        <mxCell id="9MUkiqO2VQU4ABKTeWIf-6" value="&lt;font style=&quot;font-size: 15px;&quot;&gt;Decorator&lt;br&gt;Component component&lt;br&gt;operation()&lt;br&gt;&lt;/font&gt;" style="rounded=1;whiteSpace=wrap;html=1;" vertex="1" parent="WIyWlLk6GJQsqaUBKTNV-1">
          <mxGeometry x="248.5" y="640" width="201.5" height="60" as="geometry" />
        </mxCell>
        <mxCell id="9MUkiqO2VQU4ABKTeWIf-7" style="edgeStyle=orthogonalEdgeStyle;rounded=0;orthogonalLoop=1;jettySize=auto;html=1;entryX=0;entryY=0.5;entryDx=0;entryDy=0;fontSize=15;" edge="1" parent="WIyWlLk6GJQsqaUBKTNV-1" source="9MUkiqO2VQU4ABKTeWIf-8" target="9MUkiqO2VQU4ABKTeWIf-10">
          <mxGeometry relative="1" as="geometry" />
        </mxCell>
        <mxCell id="9MUkiqO2VQU4ABKTeWIf-8" value="&lt;font style=&quot;font-size: 15px;&quot;&gt;Client&lt;/font&gt;" style="rounded=1;whiteSpace=wrap;html=1;" vertex="1" parent="WIyWlLk6GJQsqaUBKTNV-1">
          <mxGeometry x="40" y="900" width="100" height="40" as="geometry" />
        </mxCell>
        <mxCell id="9MUkiqO2VQU4ABKTeWIf-9" style="edgeStyle=orthogonalEdgeStyle;rounded=0;orthogonalLoop=1;jettySize=auto;html=1;fontSize=15;" edge="1" parent="WIyWlLk6GJQsqaUBKTNV-1" source="9MUkiqO2VQU4ABKTeWIf-10" target="9MUkiqO2VQU4ABKTeWIf-11">
          <mxGeometry relative="1" as="geometry" />
        </mxCell>
        <mxCell id="9MUkiqO2VQU4ABKTeWIf-10" value="&lt;font style=&quot;font-size: 15px;&quot;&gt;TimeDecorator&lt;/font&gt;" style="rounded=1;whiteSpace=wrap;html=1;" vertex="1" parent="WIyWlLk6GJQsqaUBKTNV-1">
          <mxGeometry x="193.5" y="900" width="126.5" height="40" as="geometry" />
        </mxCell>
        <mxCell id="9MUkiqO2VQU4ABKTeWIf-21" style="edgeStyle=none;rounded=0;orthogonalLoop=1;jettySize=auto;html=1;" edge="1" parent="WIyWlLk6GJQsqaUBKTNV-1" source="9MUkiqO2VQU4ABKTeWIf-11" target="9MUkiqO2VQU4ABKTeWIf-20">
          <mxGeometry relative="1" as="geometry" />
        </mxCell>
        <mxCell id="9MUkiqO2VQU4ABKTeWIf-11" value="&lt;font style=&quot;font-size: 15px;&quot;&gt;LogDecorator&lt;/font&gt;" style="rounded=1;whiteSpace=wrap;html=1;" vertex="1" parent="WIyWlLk6GJQsqaUBKTNV-1">
          <mxGeometry x="370" y="900" width="150" height="40" as="geometry" />
        </mxCell>
        <mxCell id="9MUkiqO2VQU4ABKTeWIf-12" value="&lt;b&gt;클래스 의존 관계&lt;/b&gt;" style="text;html=1;strokeColor=none;fillColor=none;align=center;verticalAlign=middle;whiteSpace=wrap;rounded=0;fontSize=15;" vertex="1" parent="WIyWlLk6GJQsqaUBKTNV-1">
          <mxGeometry x="38.5" y="500" width="110" height="30" as="geometry" />
        </mxCell>
        <mxCell id="9MUkiqO2VQU4ABKTeWIf-13" value="&lt;b&gt;런타임 객체 의존 관계&lt;/b&gt;" style="text;html=1;strokeColor=none;fillColor=none;align=center;verticalAlign=middle;whiteSpace=wrap;rounded=0;fontSize=15;" vertex="1" parent="WIyWlLk6GJQsqaUBKTNV-1">
          <mxGeometry x="40" y="860" width="140" height="30" as="geometry" />
        </mxCell>
        <mxCell id="9MUkiqO2VQU4ABKTeWIf-17" style="rounded=0;orthogonalLoop=1;jettySize=auto;html=1;entryX=0.5;entryY=1;entryDx=0;entryDy=0;" edge="1" parent="WIyWlLk6GJQsqaUBKTNV-1" source="9MUkiqO2VQU4ABKTeWIf-15" target="9MUkiqO2VQU4ABKTeWIf-6">
          <mxGeometry relative="1" as="geometry" />
        </mxCell>
        <mxCell id="9MUkiqO2VQU4ABKTeWIf-15" value="&lt;font style=&quot;font-size: 15px;&quot;&gt;LogDecorator&lt;br&gt;operation()&lt;br&gt;&lt;/font&gt;" style="rounded=1;whiteSpace=wrap;html=1;" vertex="1" parent="WIyWlLk6GJQsqaUBKTNV-1">
          <mxGeometry x="208.5" y="750" width="131.5" height="40" as="geometry" />
        </mxCell>
        <mxCell id="9MUkiqO2VQU4ABKTeWIf-18" style="rounded=0;orthogonalLoop=1;jettySize=auto;html=1;entryX=0.5;entryY=1;entryDx=0;entryDy=0;" edge="1" parent="WIyWlLk6GJQsqaUBKTNV-1" source="9MUkiqO2VQU4ABKTeWIf-16" target="9MUkiqO2VQU4ABKTeWIf-6">
          <mxGeometry relative="1" as="geometry" />
        </mxCell>
        <mxCell id="9MUkiqO2VQU4ABKTeWIf-16" value="&lt;font style=&quot;font-size: 15px;&quot;&gt;TimeDecorator&lt;br&gt;operation()&lt;br&gt;&lt;/font&gt;" style="rounded=1;whiteSpace=wrap;html=1;" vertex="1" parent="WIyWlLk6GJQsqaUBKTNV-1">
          <mxGeometry x="360" y="750" width="131.5" height="40" as="geometry" />
        </mxCell>
        <mxCell id="9MUkiqO2VQU4ABKTeWIf-20" value="&lt;font style=&quot;font-size: 15px;&quot;&gt;ConcreteComponent&lt;/font&gt;" style="rounded=1;whiteSpace=wrap;html=1;" vertex="1" parent="WIyWlLk6GJQsqaUBKTNV-1">
          <mxGeometry x="570" y="900" width="150" height="40" as="geometry" />
        </mxCell>
      </root>
    </mxGraphModel>
  </diagram>
</mxfile>
